<svg viewBox="0 0 96 96" xmlns="http://www.w3.org/2000/svg"><path fill="#FFF" d="M41.9 76.5l-17.5-4.6 -4.8-17.5 12.8-12.9 17.5 4.6 4.8 17.5Z"/><path fill="#292D34" d="M42.5 78.7l-19.8-5.2 -5.4-19.7 14.4-14.5 19.8 5.2 5.4 19.7 -14.4 14.5ZM26 70.2l15.4 4L52.5 63l-4.2-15.3 -15.4-4L21.8 55 26 70.2Z"/><path fill="#FFF" d="M39.5 67.7l-8.7-2.3 -2.4-8.7"/><g fill="#292D34"><path d="M39 69.6L29.2 67l-2.7-9.8 3.8-1 2.1 7.5 7.6 2Z"/><path d="M20.2 56.6L1.5 51.7l1-3.8L19 52.2l11.2-11.3L26 25.7 9.5 21.3l1-3.8 18.7 4.9 5.4 19.7Z"/><path d="M44.8 94.5l-5.1-18.6 14.4-14.5 19.8 5.2L79 85.2l-3.8 1 -4.5-16.4 -15.4-4L44.2 77.1l4.4 16.3Z"/></g><path fill="#F7C44C" d="M72.3 68.2l-17.6-4.6 -4.8-17.5 12.8-12.8 17.6 4.6 4.8 17.4Z"/><path fill="#292D34" d="M72.9 70.4l-19.8-5.2 -5.4-19.7L62.1 31l19.8 5.2 5.4 19.7 -14.4 14.5ZM56.3 62l15.4 4 11.2-11.2 -4.2-15.3 -15.4-4L52.2 46.7 56.3 62Z"/><path fill="#F7C44C" d="M73.9 44.4l2.3 8.6 -6.3 6.4"/><g fill="#292D34"><path d="M71.3 60.8L68.5 58l5.5-5.6 -2-7.5 3.8-1.1 2.6 9.8Z"/><path d="M80.9 40.1l-19.8-5.2 -5.4-19.7L69.3 1.5l2.8 2.8 -11.9 12.1 4.1 15.2 15.4 4.1 12-12.1 2.8 2.8Z"/></g><path fill="#2DCB73" d="M49.9 46.1l-17.5-4.6L27.6 24l12.8-12.8 17.5 4.6 4.8 17.5Z"/><path fill="#292D34" d="M50.5 48.3l-19.8-5.2 -5.4-19.7L39.8 9l19.8 5.2L65 33.9 50.5 48.3ZM34 39.9l15.4 4 11.2-11.2 -4.2-15.3 -15.4-4L29.8 24.6 34 39.9Z"/><path fill="#2DCB73" d="M36.4 26.4l6.4-6.4 8.7 2.3"/><path fill="#292D34" d="M37.8 27.8L35 25l7.2-7.2 9.8 2.6 -1 3.8 -7.6-2Z"/></svg>